<svg width="1780" height="746" viewBox="0 0 1780 746" fill="none" xmlns="http://www.w3.org/2000/svg">
<g filter="url(#filter0_dd_625_306)">
<path d="M169.984 217.789L170.166 221.785L173.509 221.633L173.949 218.315L169.984 217.789ZM164.122 218.056L160.122 218.116L160.185 222.239L164.303 222.051L164.122 218.056ZM103.098 153.301L107.087 153.004L107.086 152.99L103.098 153.301ZM194.5 322.782L190.502 322.9L190.502 322.911L194.5 322.782ZM58.3296 363.82L54.3816 363.176L54.0922 364.953L55.2301 366.348L58.3296 363.82ZM73.7854 268.953L74.5009 265.018L70.4925 264.289L69.8374 268.31L73.7854 268.953ZM79.6479 270.019L83.6441 269.845L83.5049 266.655L80.3634 266.084L79.6479 270.019ZM154.795 339.037L150.797 339.151L150.797 339.162L150.797 339.173L154.795 339.037ZM63.3927 166.625L59.3928 166.598L59.3927 166.608L63.3927 166.625ZM181.976 127.453L185.941 127.979L186.24 125.723L184.454 124.313L181.976 127.453ZM169.803 213.793L163.94 214.06L164.303 222.051L170.166 221.785L169.803 213.793ZM168.121 217.995C167.583 182.623 161.871 158.349 153.782 142.764C145.707 127.209 134.871 119.722 124.15 119.722V127.722C130.75 127.722 139.367 132.36 146.681 146.45C153.981 160.512 159.594 183.405 160.122 218.116L168.121 217.995ZM124.15 119.722C108.748 119.722 97.6661 135.128 99.1102 153.613L107.086 152.99C105.865 137.365 115.035 127.722 124.15 127.722V119.722ZM99.1091 153.599C100.181 167.96 106.683 181.984 115.432 195.688C124.183 209.394 135.476 223.211 146.468 237.034C157.535 250.951 168.345 264.93 176.518 279.281C184.682 293.617 190.062 308.071 190.502 322.9L198.499 322.663C198.006 306.048 191.994 290.29 183.47 275.322C174.954 260.369 163.78 245.951 152.729 232.054C141.603 218.063 130.645 204.649 122.175 191.383C113.703 178.114 108.014 165.424 107.087 153.004L99.1091 153.599ZM190.502 322.911C191.27 346.697 183.558 363.576 171.728 374.543C159.82 385.583 143.341 390.998 126.015 390.998V398.998C144.93 398.998 163.493 393.087 177.167 380.41C190.919 367.661 199.33 348.432 198.498 322.653L190.502 322.911ZM126.015 390.998C102.039 390.998 77.1132 380.517 61.429 361.291L55.2301 366.348C72.5893 387.627 99.8933 398.998 126.015 398.998V390.998ZM62.2775 364.463L77.7333 269.596L69.8374 268.31L54.3816 363.176L62.2775 364.463ZM73.0698 272.889L78.9323 273.954L80.3634 266.084L74.5009 265.018L73.0698 272.889ZM75.6517 270.193C77.398 310.224 84.5262 337.997 94.0719 355.908C103.582 373.752 115.931 382.476 128.147 382.476V374.476C120.111 374.476 109.942 368.677 101.132 352.145C92.3572 335.681 85.362 309.225 83.6441 269.845L75.6517 270.193ZM128.147 382.476C146.416 382.476 159.626 363.355 158.793 338.901L150.797 339.173C151.562 361.619 139.724 374.476 128.147 374.476V382.476ZM158.793 338.923C158.364 323.842 152.023 309.137 143.205 294.857C134.385 280.574 122.807 266.289 111.522 252.136C100.157 237.884 89.0611 223.736 80.8027 209.405C72.5504 195.084 67.3303 180.91 67.3926 166.643L59.3927 166.608C59.3218 182.852 65.2606 198.457 73.8713 213.399C82.476 228.331 93.948 242.929 105.267 257.124C116.665 271.418 127.888 285.279 136.398 299.06C144.909 312.843 150.426 326.118 150.797 339.151L158.793 338.923ZM67.3926 166.652C67.518 148.224 74.7306 135.06 85.5722 126.417C96.5281 117.683 111.502 113.332 127.348 113.332V105.332C110.15 105.332 93.2795 110.042 80.5854 120.161C67.777 130.372 59.5339 145.854 59.3928 166.598L67.3926 166.652ZM127.348 113.332C145.757 113.332 165.104 119.229 179.497 130.592L184.454 124.313C168.469 111.693 147.312 105.332 127.348 105.332V113.332ZM178.011 126.926L166.019 217.263L173.949 218.315L185.941 127.979L178.011 126.926ZM267.524 267.354V263.354H263.524V267.354H267.524ZM278.982 356.092H282.982V354.435L281.811 353.263L278.982 356.092ZM278.982 361.155V365.155H282.982V361.155H278.982ZM213.429 361.155H209.429V365.155H213.429V361.155ZM213.429 356.092L210.6 353.263L209.429 354.435V356.092H213.429ZM213.429 147.972H209.429V149.629L210.6 150.8L213.429 147.972ZM213.429 142.909V138.909H209.429V142.909H213.429ZM267.524 158.897V154.897H263.524V158.897H267.524ZM267.524 251.365H263.524V255.365H267.524V251.365ZM300.301 263.354H267.524V271.354H300.301V263.354ZM263.524 267.354V314.255H271.524V267.354H263.524ZM263.524 314.255C263.524 337.764 267.28 350.046 276.154 358.92L281.811 353.263C275.229 346.681 271.524 337.113 271.524 314.255H263.524ZM274.982 356.092V361.155H282.982V356.092H274.982ZM278.982 357.155H213.429V365.155H278.982V357.155ZM217.429 361.155V356.092H209.429V361.155H217.429ZM216.257 358.92C225.131 350.046 228.887 337.764 228.887 314.255H220.887C220.887 337.113 217.182 346.681 210.6 353.263L216.257 358.92ZM228.887 314.255V189.809H220.887V314.255H228.887ZM228.887 189.809C228.887 166.3 225.131 154.017 216.257 145.143L210.6 150.8C217.182 157.382 220.887 166.951 220.887 189.809H228.887ZM217.429 147.972V142.909H209.429V147.972H217.429ZM213.429 146.909H300.301V138.909H213.429V146.909ZM300.301 146.909C316.643 146.909 329.098 153.728 337.552 164.265C346.079 174.893 350.662 189.485 350.662 204.998H358.662C358.662 188.001 353.652 171.548 343.792 159.259C333.86 146.879 319.133 138.909 300.301 138.909V146.909ZM350.662 204.998C350.662 220.513 346.078 235.176 337.545 245.873C329.085 256.479 316.63 263.354 300.301 263.354V271.354C319.146 271.354 333.873 263.306 343.799 250.862C353.653 238.509 358.662 221.994 358.662 204.998H350.662ZM263.524 158.897V251.365H271.524V158.897H263.524ZM267.524 255.365H281.914V247.365H267.524V255.365ZM281.914 255.365C295.174 255.365 304.167 247.296 309.636 237.335C315.061 227.455 317.358 215.231 317.358 205.265H309.358C309.358 214.218 307.258 225.045 302.624 233.485C298.033 241.845 291.304 247.365 281.914 247.365V255.365ZM317.358 205.265C317.358 195.299 315.062 183.014 309.642 173.071C304.182 163.056 295.193 154.897 281.914 154.897V162.897C291.285 162.897 298.018 168.463 302.618 176.9C307.258 185.412 309.358 196.31 309.358 205.265H317.358ZM281.914 154.897H267.524V162.897H281.914V154.897ZM439.095 144.244C461.066 144.244 476.021 150.773 485.512 160.871C495.048 171.017 499.582 185.31 499.582 201.8H507.582C507.582 183.915 502.657 167.43 491.341 155.392C479.98 143.305 462.691 136.244 439.095 136.244V144.244ZM499.582 201.8V302.796H507.582V201.8H499.582ZM499.582 302.796C499.582 320.207 494.791 334.317 485.09 344.079C475.398 353.831 460.233 359.82 438.295 359.82V367.82C461.659 367.82 479.138 361.417 490.764 349.718C502.381 338.028 507.582 321.626 507.582 302.796H499.582ZM438.295 359.82C416.357 359.82 401.266 353.831 391.643 344.087C382.007 334.33 377.274 320.22 377.274 302.796H369.274C369.274 321.612 374.401 338.014 385.951 349.709C397.513 361.417 414.932 367.82 438.295 367.82V359.82ZM377.274 302.796V201.8H369.274V302.796H377.274ZM377.274 201.8C377.274 185.378 382.103 171.086 391.968 160.916C401.803 150.777 417.12 144.244 439.095 144.244V136.244C415.501 136.244 397.908 143.301 386.225 155.346C374.571 167.361 369.274 183.847 369.274 201.8H377.274ZM438.828 349.965C444.273 349.965 448.736 348.233 452.226 345.185C455.636 342.208 457.88 338.188 459.386 333.946C462.367 325.547 462.814 315.21 462.814 307.06H454.814C454.814 315.164 454.328 324.28 451.847 331.27C450.621 334.723 449.001 337.381 446.965 339.159C445.009 340.867 442.444 341.965 438.828 341.965V349.965ZM462.814 307.06V197.537H454.814V307.06H462.814ZM462.814 197.537C462.814 190.965 462.777 180.488 459.962 171.612C458.541 167.13 456.321 162.741 452.761 159.45C449.109 156.073 444.309 154.098 438.295 154.098V162.098C442.407 162.098 445.236 163.387 447.33 165.323C449.516 167.345 451.159 170.317 452.336 174.03C454.718 181.542 454.814 190.785 454.814 197.537H462.814ZM438.295 154.098C432.281 154.098 427.491 156.074 423.858 159.461C420.32 162.762 418.137 167.159 416.753 171.64C414.012 180.511 414.043 190.993 414.043 197.537H422.043C422.043 190.756 422.074 181.519 424.396 174.002C425.543 170.289 427.157 167.324 429.315 165.312C431.379 163.387 434.184 162.098 438.295 162.098V154.098ZM414.043 197.537V307.06H422.043V197.537H414.043ZM414.043 307.06C414.043 315.283 414.699 325.623 417.902 334.032C419.518 338.275 421.872 342.269 425.346 345.221C428.894 348.236 433.385 349.965 438.828 349.965V341.965C435.211 341.965 432.574 340.864 430.526 339.124C428.403 337.321 426.693 334.637 425.378 331.184C422.719 324.205 422.043 315.091 422.043 307.06H414.043ZM593.413 144.244C615.385 144.244 630.339 150.773 639.83 160.871C649.367 171.017 653.901 185.31 653.901 201.8H661.901C661.901 183.915 656.975 167.43 645.659 155.392C634.299 143.305 617.009 136.244 593.413 136.244V144.244ZM653.901 201.8V302.796H661.901V201.8H653.901ZM653.901 302.796C653.901 320.207 649.109 334.317 639.408 344.079C629.716 353.831 614.552 359.82 592.613 359.82V367.82C615.977 367.82 633.456 361.417 645.082 349.718C656.7 338.028 661.901 321.626 661.901 302.796H653.901ZM592.613 359.82C570.676 359.82 555.584 353.831 545.961 344.087C536.325 334.33 531.593 320.22 531.593 302.796H523.593C523.593 321.612 528.72 338.014 540.269 349.709C551.831 361.417 569.25 367.82 592.613 367.82V359.82ZM531.593 302.796V201.8H523.593V302.796H531.593ZM531.593 201.8C531.593 185.378 536.422 171.086 546.286 160.916C556.121 150.777 571.439 144.244 593.413 144.244V136.244C569.819 136.244 552.227 143.301 540.544 155.346C528.89 167.361 523.593 183.847 523.593 201.8H531.593ZM593.146 349.965C598.591 349.965 603.054 348.233 606.545 345.185C609.955 342.208 612.198 338.188 613.704 333.946C616.686 325.547 617.132 315.21 617.132 307.06H609.132C609.132 315.164 608.646 324.28 606.165 331.27C604.939 334.723 603.319 337.381 601.283 339.159C599.328 340.867 596.762 341.965 593.146 341.965V349.965ZM617.132 307.06V197.537H609.132V307.06H617.132ZM617.132 197.537C617.132 190.965 617.095 180.488 614.281 171.612C612.859 167.13 610.639 162.741 607.079 159.45C603.427 156.073 598.628 154.098 592.613 154.098V162.098C596.726 162.098 599.554 163.387 601.648 165.323C603.834 167.345 605.478 170.317 606.655 174.03C609.036 181.542 609.132 190.785 609.132 197.537H617.132ZM592.613 154.098C586.599 154.098 581.809 156.074 578.177 159.461C574.639 162.762 572.455 167.159 571.071 171.64C568.33 180.511 568.361 190.993 568.361 197.537H576.361C576.361 190.756 576.392 181.519 578.714 174.002C579.861 170.289 581.476 167.324 583.633 165.312C585.697 163.387 588.502 162.098 592.613 162.098V154.098ZM568.361 197.537V307.06H576.361V197.537H568.361ZM568.361 307.06C568.361 315.283 569.017 325.623 572.221 334.032C573.837 338.275 576.191 342.269 579.664 345.221C583.212 348.236 587.704 349.965 593.146 349.965V341.965C589.529 341.965 586.892 340.864 584.844 339.124C582.722 337.321 581.012 334.637 579.697 331.184C577.038 324.205 576.361 315.091 576.361 307.06H568.361ZM671.179 147.972H667.179V149.629L668.351 150.8L671.179 147.972ZM671.179 142.909V138.909H667.179V142.909H671.179ZM736.733 142.909H740.733V138.909H736.733V142.909ZM736.733 147.972L739.561 150.8L740.733 149.629V147.972H736.733ZM725.274 253.497H721.274V267.256L728.651 255.642L725.274 253.497ZM775.372 174.62L771.998 172.472L771.996 172.475L775.372 174.62ZM772.441 147.705H768.441V150.966L771.634 151.623L772.441 147.705ZM772.441 142.909V138.909H768.441V142.909H772.441ZM829.467 142.909H833.467V138.909H829.467V142.909ZM829.467 147.705L829.717 151.697L833.467 151.463V147.705H829.467ZM785.498 186.611L782.115 184.477L782.107 184.491L782.098 184.504L785.498 186.611ZM770.309 211.127L766.909 209.02L765.923 210.612L766.513 212.389L770.309 211.127ZM805.484 316.919L801.689 318.181L801.69 318.184L805.484 316.919ZM832.932 356.358H836.932V354.276L835.225 353.081L832.932 356.358ZM832.932 361.155V365.155H836.932V361.155H832.932ZM763.381 361.155H759.381V365.155H763.381V361.155ZM763.381 356.358L760.016 354.195L759.381 355.183V356.358H763.381ZM760.183 316.919L764.013 315.766L764.01 315.756L760.183 316.919ZM741.796 256.429L745.623 255.265L743.068 246.861L738.406 254.306L741.796 256.429ZM725.274 282.81L721.884 280.687L721.274 281.661V282.81H725.274ZM736.733 356.092H740.733V354.435L739.561 353.263L736.733 356.092ZM736.733 361.155V365.155H740.733V361.155H736.733ZM671.179 361.155H667.179V365.155H671.179V361.155ZM671.179 356.092L668.351 353.263L667.179 354.435V356.092H671.179ZM686.638 314.255V189.809H678.638V314.255H686.638ZM686.638 189.809C686.638 166.3 682.881 154.017 674.007 145.143L668.351 150.8C674.933 157.382 678.638 166.951 678.638 189.809H686.638ZM675.179 147.972V142.909H667.179V147.972H675.179ZM671.179 146.909H736.733V138.909H671.179V146.909ZM732.733 142.909V147.972H740.733V142.909H732.733ZM733.904 145.143C725.031 154.017 721.274 166.3 721.274 189.809H729.274C729.274 166.951 732.979 157.382 739.561 150.8L733.904 145.143ZM721.274 189.809V253.497H729.274V189.809H721.274ZM728.651 255.642L778.749 176.764L771.996 172.475L721.898 251.353L728.651 255.642ZM778.747 176.767C782.866 170.294 784.726 163.138 784.08 157.043C783.429 150.901 780.022 145.182 773.248 143.787L771.634 151.623C773.92 152.094 775.709 153.97 776.124 157.886C776.545 161.851 775.34 167.22 771.998 172.472L778.747 176.767ZM776.441 147.705V142.909H768.441V147.705H776.441ZM772.441 146.909H829.467V138.909H772.441V146.909ZM825.467 142.909V147.705H833.467V142.909H825.467ZM829.218 143.713C826.163 143.904 822.587 145.37 819.024 147.375C815.342 149.448 811.232 152.35 807.007 155.902C798.56 163.005 789.417 172.904 782.115 184.477L788.881 188.746C795.703 177.934 804.281 168.647 812.156 162.026C816.092 158.716 819.793 156.122 822.948 154.347C826.221 152.505 828.508 151.773 829.717 151.697L829.218 143.713ZM782.098 184.504L766.909 209.02L773.709 213.234L788.899 188.718L782.098 184.504ZM766.513 212.389L801.689 318.181L809.28 315.657L774.105 209.865L766.513 212.389ZM801.69 318.184C809.153 340.574 819.268 351.676 830.638 359.635L835.225 353.081C825.277 346.118 816.206 336.434 809.279 315.654L801.69 318.184ZM828.932 356.358V361.155H836.932V356.358H828.932ZM832.932 357.155H763.381V365.155H832.932V357.155ZM767.381 361.155V356.358H759.381V361.155H767.381ZM766.745 358.521C769.768 353.82 770.682 348.518 770.062 341.769C769.455 335.164 767.344 326.826 764.013 315.766L756.353 318.073C759.683 329.13 761.57 336.781 762.096 342.501C762.608 348.076 761.79 351.435 760.016 354.195L766.745 358.521ZM764.01 315.756L745.623 255.265L737.969 257.592L756.356 318.083L764.01 315.756ZM738.406 254.306L721.884 280.687L728.664 284.933L745.186 258.552L738.406 254.306ZM721.274 282.81V314.255H729.274V282.81H721.274ZM721.274 314.255C721.274 337.764 725.031 350.046 733.904 358.92L739.561 353.263C732.979 346.681 729.274 337.113 729.274 314.255H721.274ZM732.733 356.092V361.155H740.733V356.092H732.733ZM736.733 357.155H671.179V365.155H736.733V357.155ZM675.179 361.155V356.092H667.179V361.155H675.179ZM674.007 358.92C682.881 350.046 686.638 337.764 686.638 314.255H678.638C678.638 337.113 674.933 346.681 668.351 353.263L674.007 358.92ZM961.497 189.809L965.246 191.205L965.248 191.199L961.497 189.809ZM936.981 255.629L933.233 254.233L932.981 254.908V255.629H936.981ZM948.44 356.092H952.44V354.435L951.268 353.263L948.44 356.092ZM948.44 361.155V365.155H952.44V361.155H948.44ZM882.886 361.155H878.886V365.155H882.886V361.155ZM882.886 356.092L880.058 353.263L878.886 354.435V356.092H882.886ZM894.345 259.626H898.345V258.861L898.062 258.151L894.345 259.626ZM866.631 189.809L870.349 188.333L870.348 188.331L866.631 189.809ZM843.98 147.972L839.986 148.182L840.086 150.089L841.632 151.21L843.98 147.972ZM843.714 142.909V138.909H839.498L839.719 143.119L843.714 142.909ZM906.603 142.909L910.597 142.698L910.398 138.909H906.603V142.909ZM906.869 147.972L909.303 151.146L910.974 149.865L910.864 147.761L906.869 147.972ZM911.932 189.809L908.201 191.25L908.205 191.26L908.208 191.269L911.932 189.809ZM927.921 230.58L924.197 232.04L928.05 241.865L931.677 231.955L927.921 230.58ZM942.844 189.809L939.093 188.418L939.09 188.426L939.087 188.434L942.844 189.809ZM949.239 147.972H945.239V149.577L946.349 150.737L949.239 147.972ZM949.239 142.909V138.909H945.239V142.909H949.239ZM988.145 142.909H992.145V138.909H988.145V142.909ZM988.145 147.972L990.418 151.263L992.145 150.071V147.972H988.145ZM957.749 188.413L933.233 254.233L940.73 257.025L965.246 191.205L957.749 188.413ZM932.981 255.629V314.255H940.981V255.629H932.981ZM932.981 314.255C932.981 337.764 936.738 350.046 945.611 358.92L951.268 353.263C944.686 346.681 940.981 337.113 940.981 314.255H932.981ZM944.44 356.092V361.155H952.44V356.092H944.44ZM948.44 357.155H882.886V365.155H948.44V357.155ZM886.886 361.155V356.092H878.886V361.155H886.886ZM885.714 358.92C894.588 350.046 898.345 337.764 898.345 314.255H890.345C890.345 337.113 886.64 346.681 880.058 353.263L885.714 358.92ZM898.345 314.255V259.626H890.345V314.255H898.345ZM898.062 258.151L870.349 188.333L862.913 191.285L890.627 261.102L898.062 258.151ZM870.348 188.331C865.777 176.84 862.653 167.987 859.408 161.257C856.055 154.305 852.353 149.101 846.328 144.733L841.632 151.21C846.267 154.57 849.226 158.56 852.202 164.732C855.286 171.126 858.157 179.328 862.914 191.287L870.348 188.331ZM847.975 147.761L847.708 142.698L839.719 143.119L839.986 148.182L847.975 147.761ZM843.714 146.909H906.603V138.909H843.714V146.909ZM902.608 143.119L902.875 148.182L910.864 147.761L910.597 142.698L902.608 143.119ZM904.435 144.797C898.712 149.185 897.825 155.679 899.06 163.056C900.273 170.3 903.712 179.633 908.201 191.25L915.663 188.367C911.092 176.535 908.002 168.014 906.95 161.734C905.921 155.586 907.032 152.887 909.303 151.146L904.435 144.797ZM908.208 191.269L924.197 232.04L931.645 229.12L915.656 188.349L908.208 191.269ZM931.677 231.955L946.6 191.184L939.087 188.434L924.165 229.205L931.677 231.955ZM946.594 191.199C950.969 179.4 954.166 170.146 955.472 163.016C956.767 155.949 956.442 149.715 952.13 145.207L946.349 150.737C947.899 152.358 948.774 155.184 947.603 161.574C946.444 167.901 943.512 176.501 939.093 188.418L946.594 191.199ZM953.239 147.972V142.909H945.239V147.972H953.239ZM949.239 146.909H988.145V138.909H949.239V146.909ZM984.145 142.909V147.972H992.145V142.909H984.145ZM985.872 144.68C973.64 153.127 966.619 164.49 957.747 188.418L965.248 191.199C973.963 167.694 980.267 158.273 990.418 151.263L985.872 144.68Z" fill="#A30000"/>
<path d="M1200.79 355.937H1204.79V354.28L1203.62 353.108L1200.79 355.937ZM1200.79 361V365H1204.79V361H1200.79ZM1135.23 361H1131.23V365H1135.23V361ZM1135.23 355.937L1132.41 353.108L1131.23 354.28V355.937H1135.23ZM1146.69 204.577H1150.69L1142.88 203.375L1146.69 204.577ZM1097.39 361V365H1100.33L1101.21 362.202L1097.39 361ZM1075.54 361L1071.73 362.202L1072.61 365H1075.54V361ZM1029.44 214.703L1033.26 213.501L1025.44 214.703H1029.44ZM1040.9 355.937H1044.9V354.28L1043.73 353.108L1040.9 355.937ZM1040.9 361V365H1044.9V361H1040.9ZM999.33 361H995.33V365H999.33V361ZM999.33 355.937L996.501 353.108L995.33 354.28V355.937H999.33ZM999.33 147.817H995.33V149.474L996.501 150.645L999.33 147.817ZM999.33 142.754V138.754H995.33V142.754H999.33ZM1052.09 142.754L1055.91 141.552L1055.03 138.754H1052.09V142.754ZM1099.79 294.114L1095.98 295.316L1099.79 307.422L1103.61 295.316L1099.79 294.114ZM1147.49 142.754V138.754H1144.56L1143.68 141.552L1147.49 142.754ZM1200.79 142.754H1204.79V138.754H1200.79V142.754ZM1200.79 147.817L1203.62 150.645L1204.79 149.474V147.817H1200.79ZM1185.33 189.654V314.1H1193.33V189.654H1185.33ZM1185.33 314.1C1185.33 337.609 1189.09 349.892 1197.96 358.765L1203.62 353.108C1197.03 346.526 1193.33 336.958 1193.33 314.1H1185.33ZM1196.79 355.937V361H1204.79V355.937H1196.79ZM1200.79 357H1135.23V365H1200.79V357ZM1139.23 361V355.937H1131.23V361H1139.23ZM1138.06 358.765C1146.94 349.892 1150.69 337.609 1150.69 314.1H1142.69C1142.69 336.958 1138.99 346.526 1132.41 353.108L1138.06 358.765ZM1150.69 314.1V204.577H1142.69V314.1H1150.69ZM1142.88 203.375L1093.58 359.798L1101.21 362.202L1150.51 205.779L1142.88 203.375ZM1097.39 357H1075.54V365H1097.39V357ZM1079.36 359.798L1033.26 213.501L1025.63 215.905L1071.73 362.202L1079.36 359.798ZM1025.44 214.703V314.1H1033.44V214.703H1025.44ZM1025.44 314.1C1025.44 337.609 1029.2 349.892 1038.07 358.765L1043.73 353.108C1037.15 346.526 1033.44 336.958 1033.44 314.1H1025.44ZM1036.9 355.937V361H1044.9V355.937H1036.9ZM1040.9 357H999.33V365H1040.9V357ZM1003.33 361V355.937H995.33V361H1003.33ZM1002.16 358.765C1011.03 349.892 1014.79 337.609 1014.79 314.1H1006.79C1006.79 336.958 1003.08 346.526 996.501 353.108L1002.16 358.765ZM1014.79 314.1V189.654H1006.79V314.1H1014.79ZM1014.79 189.654C1014.79 166.145 1011.03 153.862 1002.16 144.988L996.501 150.645C1003.08 157.227 1006.79 166.796 1006.79 189.654H1014.79ZM1003.33 147.817V142.754H995.33V147.817H1003.33ZM999.33 146.754H1052.09V138.754H999.33V146.754ZM1048.28 143.956L1095.98 295.316L1103.61 292.912L1055.91 141.552L1048.28 143.956ZM1103.61 295.316L1151.31 143.956L1143.68 141.552L1095.98 292.912L1103.61 295.316ZM1147.49 146.754H1200.79V138.754H1147.49V146.754ZM1196.79 142.754V147.817H1204.79V142.754H1196.79ZM1197.96 144.988C1189.09 153.862 1185.33 166.145 1185.33 189.654H1193.33C1193.33 166.796 1197.03 157.227 1203.62 150.645L1197.96 144.988ZM1282.51 144.089C1304.48 144.089 1319.43 150.618 1328.92 160.716C1338.46 170.862 1343 185.155 1343 201.646H1351C1351 183.76 1346.07 167.275 1334.75 155.237C1323.39 143.15 1306.1 136.089 1282.51 136.089V144.089ZM1343 201.646V302.641H1351V201.646H1343ZM1343 302.641C1343 320.052 1338.2 334.162 1328.5 343.924C1318.81 353.676 1303.65 359.665 1281.71 359.665V367.665C1305.07 367.665 1322.55 361.262 1334.18 349.563C1345.79 337.873 1351 321.471 1351 302.641H1343ZM1281.71 359.665C1259.77 359.665 1244.68 353.676 1235.06 343.933C1225.42 334.176 1220.69 320.066 1220.69 302.641H1212.69C1212.69 321.458 1217.81 337.86 1229.36 349.554C1240.93 361.262 1258.34 367.665 1281.71 367.665V359.665ZM1220.69 302.641V201.646H1212.69V302.641H1220.69ZM1220.69 201.646C1220.69 185.223 1225.52 170.931 1235.38 160.761C1245.22 150.622 1260.53 144.089 1282.51 144.089V136.089C1258.91 136.089 1241.32 143.147 1229.64 155.191C1217.98 167.206 1212.69 183.692 1212.69 201.646H1220.69ZM1282.24 349.811C1287.69 349.811 1292.15 348.078 1295.64 345.031C1299.05 342.054 1301.29 338.033 1302.8 333.792C1305.78 325.392 1306.23 315.055 1306.23 306.905H1298.23C1298.23 315.01 1297.74 324.126 1295.26 331.115C1294.03 334.568 1292.41 337.227 1290.38 339.004C1288.42 340.712 1285.86 341.811 1282.24 341.811V349.811ZM1306.23 306.905V197.382H1298.23V306.905H1306.23ZM1306.23 197.382C1306.23 190.81 1306.19 180.333 1303.37 171.457C1301.95 166.975 1299.73 162.586 1296.17 159.295C1292.52 155.918 1287.72 153.943 1281.71 153.943V161.943C1285.82 161.943 1288.65 163.233 1290.74 165.169C1292.93 167.19 1294.57 170.163 1295.75 173.875C1298.13 181.387 1298.23 190.63 1298.23 197.382H1306.23ZM1281.71 153.943C1275.69 153.943 1270.9 155.919 1267.27 159.307C1263.73 162.607 1261.55 167.004 1260.17 171.485C1257.42 180.357 1257.46 190.838 1257.46 197.382H1265.46C1265.46 190.602 1265.49 181.364 1267.81 173.847C1268.96 170.134 1270.57 167.17 1272.73 165.157C1274.79 163.232 1277.6 161.943 1281.71 161.943V153.943ZM1257.46 197.382V306.905H1265.46V197.382H1257.46ZM1257.46 306.905C1257.46 315.129 1258.11 325.468 1261.31 333.877C1262.93 338.12 1265.28 342.114 1268.76 345.066C1272.31 348.081 1276.8 349.811 1282.24 349.811V341.811C1278.62 341.811 1275.99 340.709 1273.94 338.969C1271.82 337.166 1270.11 334.482 1268.79 331.029C1266.13 324.05 1265.46 314.936 1265.46 306.905H1257.46ZM1418.96 189.654L1422.9 188.979L1422.9 188.974L1418.96 189.654ZM1440.28 314.1L1436.34 314.775H1444.22L1440.28 314.1ZM1461.6 189.654L1457.66 188.974L1457.66 188.979L1461.6 189.654ZM1457.33 147.817H1453.33V149.257L1454.25 150.367L1457.33 147.817ZM1457.33 142.754V138.754H1453.33V142.754H1457.33ZM1499.17 142.754H1503.17V138.754H1499.17V142.754ZM1499.17 147.817L1501.77 150.86L1503.17 149.663V147.817H1499.17ZM1480.52 189.654L1476.58 188.974L1476.58 188.979L1480.52 189.654ZM1459.2 314.1L1463.14 314.779L1463.14 314.775L1459.2 314.1ZM1463.46 355.937H1467.46V354.496L1466.54 353.387L1463.46 355.937ZM1463.46 361V365H1467.46V361H1463.46ZM1393.38 361H1389.38V365H1393.38V361ZM1393.38 355.937L1390.3 353.387L1389.38 354.496V355.937H1393.38ZM1397.64 314.1L1393.7 314.775L1393.7 314.779L1397.64 314.1ZM1376.32 189.654L1380.27 188.979L1380.27 188.974L1376.32 189.654ZM1357.67 147.817H1353.67V149.663L1355.08 150.86L1357.67 147.817ZM1357.67 142.754V138.754H1353.67V142.754H1357.67ZM1423.22 142.754H1427.22V138.754H1423.22V142.754ZM1423.22 147.817L1426.31 150.367L1427.22 149.257V147.817H1423.22ZM1415.02 190.329L1436.34 314.775L1444.22 313.424L1422.9 188.979L1415.02 190.329ZM1444.22 314.775L1465.54 190.329L1457.66 188.979L1436.34 313.424L1444.22 314.775ZM1465.54 190.334C1469.57 166.965 1468.01 154.443 1460.42 145.267L1454.25 150.367C1459.45 156.646 1461.62 165.976 1457.66 188.974L1465.54 190.334ZM1461.33 147.817V142.754H1453.33V147.817H1461.33ZM1457.33 146.754H1499.17V138.754H1457.33V146.754ZM1495.17 142.754V147.817H1503.17V142.754H1495.17ZM1496.58 144.774C1486.47 153.389 1480.64 165.413 1476.58 188.974L1484.46 190.334C1488.39 167.528 1493.75 157.701 1501.77 150.86L1496.58 144.774ZM1476.58 188.979L1455.26 313.424L1463.14 314.775L1484.46 190.329L1476.58 188.979ZM1455.26 313.42C1451.23 336.789 1452.79 349.311 1460.38 358.487L1466.54 353.387C1461.35 347.107 1459.18 337.778 1463.14 314.779L1455.26 313.42ZM1459.46 355.937V361H1467.46V355.937H1459.46ZM1463.46 357H1393.38V365H1463.46V357ZM1397.38 361V355.937H1389.38V361H1397.38ZM1396.46 358.487C1404.05 349.311 1405.61 336.789 1401.58 313.42L1393.7 314.779C1397.67 337.778 1395.49 347.107 1390.3 353.387L1396.46 358.487ZM1401.59 313.424L1380.27 188.979L1372.38 190.329L1393.7 314.775L1401.59 313.424ZM1380.27 188.974C1376.2 165.413 1370.37 153.389 1360.27 144.774L1355.08 150.86C1363.09 157.701 1368.45 167.528 1372.38 190.334L1380.27 188.974ZM1361.67 147.817V142.754H1353.67V147.817H1361.67ZM1357.67 146.754H1423.22V138.754H1357.67V146.754ZM1419.22 142.754V147.817H1427.22V142.754H1419.22ZM1420.14 145.267C1412.55 154.443 1410.99 166.965 1415.02 190.334L1422.9 188.974C1418.94 165.976 1421.11 156.646 1426.31 150.367L1420.14 145.267ZM1509.91 147.817H1505.91V149.474L1507.08 150.645L1509.91 147.817ZM1509.91 142.754V138.754H1505.91V142.754H1509.91ZM1575.46 142.754H1579.46V138.754H1575.46V142.754ZM1575.46 147.817L1578.29 150.645L1579.46 149.474V147.817H1575.46ZM1575.46 355.937H1579.46V354.28L1578.29 353.108L1575.46 355.937ZM1575.46 361V365H1579.46V361H1575.46ZM1509.91 361H1505.91V365H1509.91V361ZM1509.91 355.937L1507.08 353.108L1505.91 354.28V355.937H1509.91ZM1525.37 314.1V189.654H1517.37V314.1H1525.37ZM1525.37 189.654C1525.37 166.145 1521.61 153.862 1512.74 144.988L1507.08 150.645C1513.66 157.227 1517.37 166.796 1517.37 189.654H1525.37ZM1513.91 147.817V142.754H1505.91V147.817H1513.91ZM1509.91 146.754H1575.46V138.754H1509.91V146.754ZM1571.46 142.754V147.817H1579.46V142.754H1571.46ZM1572.63 144.988C1563.76 153.862 1560 166.145 1560 189.654H1568C1568 166.796 1571.71 157.227 1578.29 150.645L1572.63 144.988ZM1560 189.654V314.1H1568V189.654H1560ZM1560 314.1C1560 337.609 1563.76 349.892 1572.63 358.765L1578.29 353.108C1571.71 346.526 1568 336.958 1568 314.1H1560ZM1571.46 355.937V361H1579.46V355.937H1571.46ZM1575.46 357H1509.91V365H1575.46V357ZM1513.91 361V355.937H1505.91V361H1513.91ZM1512.74 358.765C1521.61 349.892 1525.37 337.609 1525.37 314.1H1517.37C1517.37 336.958 1513.66 346.526 1507.08 353.108L1512.74 358.765ZM1588.82 116.905H1584.82V118.691L1586.15 119.884L1588.82 116.905ZM1588.82 112.375V108.375H1584.82V112.375H1588.82ZM1713 112.375L1716.98 112.032L1716.67 108.375H1713V112.375ZM1721.26 208.308V212.308H1725.62L1725.25 207.964L1721.26 208.308ZM1716.2 208.308L1712.3 209.192L1713 212.308H1716.2V208.308ZM1648.25 128.364V124.364H1644.25V128.364H1648.25ZM1648.25 222.697H1644.25V226.697H1648.25V222.697ZM1648.78 222.697V226.697H1648.84L1648.9 226.696L1648.78 222.697ZM1684.22 176.597V172.597H1680.97L1680.3 175.777L1684.22 176.597ZM1689.28 176.597H1693.28V172.597H1689.28V176.597ZM1689.28 287.452V291.452H1693.28V287.452H1689.28ZM1684.22 287.452L1680.3 288.271L1680.97 291.452H1684.22V287.452ZM1648.78 241.351L1648.9 237.353L1648.84 237.351H1648.78V241.351ZM1648.25 241.351V237.351H1644.25V241.351H1648.25ZM1648.25 376.722H1644.25V380.722H1648.25V376.722ZM1716.2 254.142V250.142H1712.77L1712.24 253.53L1716.2 254.142ZM1721.26 254.142L1725.25 254.38L1725.51 250.142H1721.26V254.142ZM1713 392.711V396.711H1716.77L1716.99 392.949L1713 392.711ZM1586.16 392.711H1582.16V396.711H1586.16V392.711ZM1586.16 388.181L1584.42 384.579L1582.16 385.67V388.181H1586.16ZM1609.61 325.825V178.995H1601.61V325.825H1609.61ZM1609.61 178.995C1609.61 154.975 1607.34 140.624 1603.86 131.267C1600.28 121.631 1595.47 117.498 1591.49 113.927L1586.15 119.884C1589.9 123.241 1593.48 126.303 1596.36 134.054C1599.35 142.085 1601.61 155.315 1601.61 178.995H1609.61ZM1592.82 116.905V112.375H1584.82V116.905H1592.82ZM1588.82 116.375H1713V108.375H1588.82V116.375ZM1709.01 112.718L1717.28 208.651L1725.25 207.964L1716.98 112.032L1709.01 112.718ZM1721.26 204.308H1716.2V212.308H1721.26V204.308ZM1720.1 207.423C1714.82 184.165 1706.46 163.638 1695.87 148.821C1685.33 134.079 1672.09 124.364 1657.04 124.364V132.364C1668.37 132.364 1679.51 139.703 1689.36 153.474C1699.15 167.171 1707.18 186.616 1712.3 209.192L1720.1 207.423ZM1657.04 124.364H1648.25V132.364H1657.04V124.364ZM1644.25 128.364V222.697H1652.25V128.364H1644.25ZM1648.25 226.697H1648.78V218.697H1648.25V226.697ZM1648.9 226.696C1664.4 226.235 1673.71 216.13 1679.24 205.49C1684.74 194.919 1686.96 183.024 1688.14 177.416L1680.3 175.777C1679.08 181.628 1677.04 192.383 1672.14 201.799C1667.28 211.144 1660.07 218.36 1648.66 218.699L1648.9 226.696ZM1684.22 180.597H1689.28V172.597H1684.22V180.597ZM1685.28 176.597V287.452H1693.28V176.597H1685.28ZM1689.28 283.452H1684.22V291.452H1689.28V283.452ZM1688.14 286.632C1686.96 281.024 1684.74 269.129 1679.24 258.559C1673.71 247.918 1664.4 237.813 1648.9 237.353L1648.66 245.349C1660.07 245.688 1667.28 252.905 1672.14 262.25C1677.04 271.665 1679.08 282.421 1680.3 288.271L1688.14 286.632ZM1648.78 237.351H1648.25V245.351H1648.78V237.351ZM1644.25 241.351V376.722H1652.25V241.351H1644.25ZM1648.25 380.722H1657.04V372.722H1648.25V380.722ZM1657.04 380.722C1665.13 380.722 1672.45 376.461 1678.84 369.777C1685.24 363.086 1691.06 353.619 1696.25 342.28C1706.65 319.576 1714.92 288.539 1720.15 254.754L1712.24 253.53C1707.08 286.897 1698.96 317.15 1688.98 338.949C1683.98 349.86 1678.6 358.448 1673.06 364.248C1667.51 370.055 1662.14 372.722 1657.04 372.722V380.722ZM1716.2 258.142H1721.26V250.142H1716.2V258.142ZM1717.27 253.904L1709.01 392.473L1716.99 392.949L1725.25 254.38L1717.27 253.904ZM1713 388.711H1586.16V396.711H1713V388.711ZM1590.16 392.711V388.181H1582.16V392.711H1590.16ZM1587.89 391.783C1592.63 389.496 1598.19 385.107 1602.46 375.057C1606.66 365.198 1609.61 349.936 1609.61 325.825H1601.61C1601.61 349.414 1598.7 363.464 1595.1 371.925C1591.58 380.196 1587.41 383.135 1584.42 384.579L1587.89 391.783Z" fill="#A30000"/>
<path d="M550.586 488.371V492.371H553.931L554.523 489.078L550.586 488.371ZM545.523 488.371L541.644 489.347L542.404 492.371H545.523V488.371ZM490.095 449.998L494.092 450.152L494.093 450.126L494.094 450.1L490.095 449.998ZM441.33 613.083L437.544 611.791L436.816 613.925L438.265 615.653L441.33 613.083ZM460.516 556.856L461.34 552.942L457.874 552.212L456.73 555.564L460.516 556.856ZM465.579 557.922L469.505 557.155L468.997 554.553L466.403 554.007L465.579 557.922ZM531.399 593.363H535.399V593.351L535.399 593.339L531.399 593.363ZM448.525 461.19L444.529 460.992L444.529 461.005L448.525 461.19ZM560.979 430.545L564.916 431.252L565.349 428.842L563.399 427.36L560.979 430.545ZM550.586 484.371H545.523V492.371H550.586V484.371ZM549.402 487.395C543.995 465.9 537.082 451.131 529.692 441.644C522.312 432.17 514.137 427.611 506.35 427.611V435.611C510.821 435.611 516.904 438.246 523.381 446.56C529.847 454.861 536.392 468.471 541.644 489.347L549.402 487.395ZM506.35 427.611C494.569 427.611 486.403 437.931 486.097 449.895L494.094 450.1C494.32 441.279 500.011 435.611 506.35 435.611V427.611ZM486.098 449.843C485.644 461.566 491.218 472.341 498.994 482.424C506.77 492.505 517.268 502.529 527.45 512.629C537.751 522.847 547.832 533.233 555.356 544.383C562.854 555.493 567.638 567.109 567.638 579.773H575.638C575.638 564.989 570.029 551.824 561.987 539.908C553.973 528.032 543.368 517.15 533.084 506.949C522.68 496.63 512.693 487.084 505.329 477.538C497.966 467.992 493.747 459.081 494.092 450.152L486.098 449.843ZM567.638 579.773C567.638 598.924 559.882 612.468 548.29 621.33C536.563 630.296 520.631 634.665 504.219 634.665V642.665C521.916 642.665 539.693 637.973 553.149 627.686C566.739 617.296 575.638 601.393 575.638 579.773H567.638ZM504.219 634.665C480.775 634.665 457.279 625.874 444.394 610.512L438.265 615.653C453.094 633.335 479.163 642.665 504.219 642.665V634.665ZM445.115 614.375L464.302 558.148L456.73 555.564L437.544 611.791L445.115 614.375ZM459.692 560.77L464.755 561.836L466.403 554.007L461.34 552.942L459.692 560.77ZM461.653 558.689C466.255 582.238 473.364 598.618 481.571 609.205C489.798 619.818 499.325 624.811 508.482 624.811V616.811C502.45 616.811 495.055 613.542 487.894 604.303C480.711 595.037 473.964 579.972 469.505 557.155L461.653 558.689ZM508.482 624.811C524.093 624.811 535.399 610.63 535.399 593.363H527.399C527.399 607.541 518.453 616.811 508.482 616.811V624.811ZM535.399 593.339C535.324 581.201 529.278 570.262 521.078 560.084C512.89 549.921 502.028 539.903 491.652 529.806C470.433 509.158 451.283 488.109 452.52 461.375L444.529 461.005C443.102 491.831 465.256 515.283 486.073 535.54C496.716 545.895 507.055 555.43 514.848 565.103C522.629 574.761 527.341 583.941 527.4 593.388L535.399 593.339ZM452.52 461.388C453.253 446.596 460.139 436.128 470.35 429.229C480.702 422.235 494.643 418.823 509.282 418.823V410.823C493.541 410.823 477.904 414.471 465.871 422.6C453.699 430.824 445.395 443.539 444.529 460.992L452.52 461.388ZM509.282 418.823C527.527 418.823 546.074 424.242 558.558 433.729L563.399 427.36C549.235 416.596 528.876 410.823 509.282 410.823V418.823ZM557.042 429.837L546.649 487.663L554.523 489.078L564.916 431.252L557.042 429.837ZM582.376 422.817H578.376V424.474L579.548 425.645L582.376 422.817ZM582.376 417.754V413.754H578.376V417.754H582.376ZM698.028 417.754L701.989 417.196L701.504 413.754H698.028V417.754ZM706.022 474.514V478.514H710.625L709.983 473.956L706.022 474.514ZM700.959 474.514L697.277 476.076L698.311 478.514H700.959V474.514ZM636.471 433.743V429.743H632.471V433.743H636.471ZM636.471 497.697H632.471V501.697H636.471V497.697ZM649.529 497.697V501.697H649.627L649.725 501.693L649.529 497.697ZM671.913 478.244V474.244H668.663L667.998 477.425L671.913 478.244ZM676.976 478.244H680.976V474.244H676.976V478.244ZM676.976 535.804V539.804H680.976V535.804H676.976ZM671.913 535.804L667.998 536.623L668.663 539.804H671.913V535.804ZM649.529 516.351L649.725 512.356L649.627 512.351H649.529V516.351ZM636.471 516.351V512.351H632.471V516.351H636.471ZM636.471 619.745H632.471V623.745H636.471V619.745ZM706.289 552.592V548.592H703.209L702.422 551.57L706.289 552.592ZM711.352 552.592L715.32 553.099L715.896 548.592H711.352V552.592ZM700.693 636V640H704.214L704.66 636.507L700.693 636ZM582.376 636H578.376V640H582.376V636ZM582.376 630.937L579.548 628.108L578.376 629.28V630.937H582.376ZM597.835 589.1V464.654H589.835V589.1H597.835ZM597.835 464.654C597.835 441.145 594.078 428.862 585.204 419.988L579.548 425.645C586.13 432.227 589.835 441.796 589.835 464.654H597.835ZM586.376 422.817V417.754H578.376V422.817H586.376ZM582.376 421.754H698.028V413.754H582.376V421.754ZM694.067 418.312L702.061 475.072L709.983 473.956L701.989 417.196L694.067 418.312ZM706.022 470.514H700.959V478.514H706.022V470.514ZM704.641 472.952C701.167 464.762 697.862 453.512 690.115 444.864C682.008 435.814 669.406 429.743 647.93 429.743V437.743C667.758 437.743 677.94 443.263 684.156 450.202C690.732 457.542 693.29 466.678 697.277 476.076L704.641 472.952ZM647.93 429.743H636.471V437.743H647.93V429.743ZM632.471 433.743V497.697H640.471V433.743H632.471ZM636.471 501.697H649.529V493.697H636.471V501.697ZM649.725 501.693C658.385 501.267 664.532 499.097 668.774 494.768C672.9 490.557 674.609 484.889 675.828 479.064L667.998 477.425C666.819 483.059 665.463 486.717 663.06 489.168C660.774 491.501 656.928 493.329 649.332 493.702L649.725 501.693ZM671.913 482.244H676.976V474.244H671.913V482.244ZM672.976 478.244V535.804H680.976V478.244H672.976ZM676.976 531.804H671.913V539.804H676.976V531.804ZM675.828 534.984C674.609 529.16 672.9 523.491 668.774 519.281C664.532 514.952 658.385 512.782 649.725 512.356L649.332 520.346C656.928 520.72 660.774 522.547 663.06 524.88C665.463 527.331 666.819 530.99 667.998 536.623L675.828 534.984ZM649.529 512.351H636.471V520.351H649.529V512.351ZM632.471 516.351V619.745H640.471V516.351H632.471ZM636.471 623.745H650.595V615.745H636.471V623.745ZM650.595 623.745C670.529 623.745 683.997 611.462 693.028 596.979C702.033 582.536 707.084 565.235 710.156 553.614L702.422 551.57C699.365 563.133 694.556 579.408 686.239 592.746C677.949 606.043 666.635 615.745 650.595 615.745V623.745ZM706.289 556.592H711.352V548.592H706.289V556.592ZM707.384 552.085L696.725 635.493L704.66 636.507L715.32 553.099L707.384 552.085ZM700.693 632H582.376V640H700.693V632ZM586.376 636V630.937H578.376V636H586.376ZM585.204 633.765C594.078 624.892 597.835 612.609 597.835 589.1H589.835C589.835 611.958 586.13 621.526 579.548 628.108L585.204 633.765ZM761.356 636V640H765.356V636H761.356ZM719.519 636H715.519V640H719.519V636ZM719.519 630.937L716.923 627.894L715.519 629.091V630.937H719.519ZM738.172 589.1L742.114 589.779L742.115 589.775L738.172 589.1ZM759.491 464.654L755.549 463.974L755.548 463.979L759.491 464.654ZM755.227 422.817H751.227V424.257L752.146 425.367L755.227 422.817ZM755.227 417.754V413.754H751.227V417.754H755.227ZM825.311 417.754H829.311V413.754H825.311V417.754ZM825.311 422.817L828.393 425.367L829.311 424.257V422.817H825.311ZM821.047 464.654L824.99 463.979L824.989 463.974L821.047 464.654ZM842.366 589.1L838.423 589.775L838.424 589.779L842.366 589.1ZM861.019 630.937H865.019V629.091L863.615 627.894L861.019 630.937ZM861.019 636V640H865.019V636H861.019ZM795.465 636H791.465V640H795.465V636ZM795.465 630.937L792.384 628.387L791.465 629.496V630.937H795.465ZM799.729 589.1L795.769 589.665L795.777 589.723L795.787 589.779L799.729 589.1ZM799.196 585.369L803.156 584.803L802.665 581.369H799.196V585.369ZM757.625 585.369V581.369H754.156L753.666 584.803L757.625 585.369ZM757.092 589.1L761.034 589.779L761.044 589.723L761.052 589.665L757.092 589.1ZM761.356 630.937H765.356V629.496L764.438 628.387L761.356 630.937ZM795.998 566.715V570.715H800.747L799.94 566.036L795.998 566.715ZM778.411 464.654L782.353 463.975H774.469L778.411 464.654ZM760.823 566.715L756.881 566.036L756.075 570.715H760.823V566.715ZM761.356 632H719.519V640H761.356V632ZM723.519 636V630.937H715.519V636H723.519ZM722.115 633.98C732.215 625.365 738.052 613.341 742.114 589.779L734.231 588.42C730.299 611.226 724.943 621.053 716.923 627.894L722.115 633.98ZM742.115 589.775L763.433 465.329L755.548 463.979L734.23 588.424L742.115 589.775ZM763.433 465.334C767.462 441.965 765.903 429.443 758.309 420.267L752.146 425.367C757.342 431.646 759.514 440.976 755.549 463.974L763.433 465.334ZM759.227 422.817V417.754H751.227V422.817H759.227ZM755.227 421.754H825.311V413.754H755.227V421.754ZM821.311 417.754V422.817H829.311V417.754H821.311ZM822.23 420.267C814.635 429.443 813.076 441.965 817.106 465.334L824.989 463.974C821.024 440.976 823.196 431.646 828.393 425.367L822.23 420.267ZM817.105 465.329L838.423 589.775L846.308 588.424L824.99 463.979L817.105 465.329ZM838.424 589.779C842.486 613.341 848.323 625.365 858.423 633.98L863.615 627.894C855.595 621.053 850.24 611.226 846.308 588.42L838.424 589.779ZM857.019 630.937V636H865.019V630.937H857.019ZM861.019 632H795.465V640H861.019V632ZM799.465 636V630.937H791.465V636H799.465ZM798.547 633.487C806.141 624.311 807.7 611.789 803.671 588.42L795.787 589.779C799.753 612.778 797.58 622.107 792.384 628.387L798.547 633.487ZM803.689 588.534L803.156 584.803L795.236 585.935L795.769 589.665L803.689 588.534ZM799.196 581.369H757.625V589.369H799.196V581.369ZM753.666 584.803L753.133 588.534L761.052 589.665L761.585 585.935L753.666 584.803ZM753.151 588.42C749.122 611.789 750.68 624.311 758.275 633.487L764.438 628.387C759.241 622.107 757.069 612.778 761.034 589.779L753.151 588.42ZM757.356 630.937V636H765.356V630.937H757.356ZM799.94 566.036L782.353 463.975L774.469 465.333L792.057 567.395L799.94 566.036ZM774.469 463.975L756.881 566.036L764.765 567.395L782.353 465.333L774.469 463.975ZM760.823 570.715H795.998V562.715H760.823V570.715ZM871.755 422.817H867.755V424.474L868.927 425.645L871.755 422.817ZM871.755 417.754V413.754H867.755V417.754H871.755ZM974.616 529.675L973.617 525.802L969.461 526.874L970.823 530.945L974.616 529.675ZM995.402 591.764L999.196 590.5L999.195 590.495L995.402 591.764ZM1022.85 631.203H1026.85V629.121L1025.14 627.926L1022.85 631.203ZM1022.85 636V640H1026.85V636H1022.85ZM953.298 636H949.298V640H953.298V636ZM953.298 631.203L949.933 629.04L949.298 630.029V631.203H953.298ZM950.1 591.764L953.958 590.708L953.958 590.706L950.1 591.764ZM933.579 531.54L937.436 530.482L936.629 527.54H933.579V531.54ZM925.851 531.54V527.54H921.851V531.54H925.851ZM937.309 630.937H941.309V629.28L940.138 628.108L937.309 630.937ZM937.309 636V640H941.309V636H937.309ZM871.755 636H867.755V640H871.755V636ZM871.755 630.937L868.927 628.108L867.755 629.28V630.937H871.755ZM925.851 433.743V429.743H921.851V433.743H925.851ZM925.851 515.552H921.851V519.552H925.851V515.552ZM887.214 589.1V464.654H879.214V589.1H887.214ZM887.214 464.654C887.214 441.145 883.458 428.862 874.584 419.988L868.927 425.645C875.509 432.227 879.214 441.796 879.214 464.654H887.214ZM875.755 422.817V417.754H867.755V422.817H875.755ZM871.755 421.754H958.628V413.754H871.755V421.754ZM958.628 421.754C975.242 421.754 987.7 427.448 996.038 436.631C1004.42 445.868 1008.99 459.024 1008.99 474.514H1016.99C1016.99 457.493 1011.96 442.269 1001.96 431.254C991.911 420.185 977.189 413.754 958.628 413.754V421.754ZM1008.99 474.514C1008.99 500.319 996.233 519.965 973.617 525.802L975.616 533.548C1002.56 526.593 1016.99 503.07 1016.99 474.514H1008.99ZM970.823 530.945L991.609 593.034L999.195 590.495L978.409 528.405L970.823 530.945ZM991.607 593.029C999.07 615.419 1009.18 626.521 1020.56 634.48L1025.14 627.926C1015.19 620.963 1006.12 611.279 999.196 590.5L991.607 593.029ZM1018.85 631.203V636H1026.85V631.203H1018.85ZM1022.85 632H953.298V640H1022.85V632ZM957.298 636V631.203H949.298V636H957.298ZM956.663 633.366C959.72 628.611 960.463 623.333 959.775 616.669C959.102 610.156 957.006 601.84 953.958 590.708L946.242 592.821C949.323 604.073 951.224 611.746 951.817 617.491C952.395 623.085 951.673 626.335 949.933 629.04L956.663 633.366ZM953.958 590.706L937.436 530.482L929.721 532.599L946.243 592.823L953.958 590.706ZM933.579 527.54H925.851V535.54H933.579V527.54ZM921.851 531.54V589.1H929.851V531.54H921.851ZM921.851 589.1C921.851 612.609 925.607 624.892 934.481 633.765L940.138 628.108C933.556 621.526 929.851 611.958 929.851 589.1H921.851ZM933.309 630.937V636H941.309V630.937H933.309ZM937.309 632H871.755V640H937.309V632ZM875.755 636V630.937H867.755V636H875.755ZM874.584 633.765C883.458 624.892 887.214 612.609 887.214 589.1H879.214C879.214 611.958 875.509 621.526 868.927 628.108L874.584 633.765ZM921.851 433.743V515.552H929.851V433.743H921.851ZM925.851 519.552H940.241V511.552H925.851V519.552ZM940.241 519.552C953.1 519.552 962.155 513.243 967.822 504.423C973.379 495.775 975.685 484.767 975.685 474.78H967.685C967.685 483.713 965.594 493.092 961.092 500.099C956.699 506.934 950.032 511.552 940.241 511.552V519.552ZM975.685 474.78C975.685 464.794 973.38 453.727 967.83 445.017C962.173 436.138 953.121 429.743 940.241 429.743V437.743C950.011 437.743 956.681 442.406 961.083 449.316C965.594 456.395 967.685 465.846 967.685 474.78H975.685ZM940.241 429.743H925.851V437.743H940.241V429.743ZM1147.67 532.34L1151.6 531.598L1150.77 527.168L1146.47 528.525L1147.67 532.34ZM1162.86 612.816L1165.45 615.87L1167.23 614.365L1166.79 612.074L1162.86 612.816ZM1159.4 437.74L1163.19 439.005L1164.15 436.13L1161.64 434.429L1159.4 437.74ZM1142.34 488.904L1141.14 492.718L1144.89 493.904L1146.14 490.169L1142.34 488.904ZM1137.28 487.305L1133.28 487.35L1133.31 490.247L1136.08 491.119L1137.28 487.305ZM1142.61 533.939L1141.41 530.124L1138.68 530.985L1138.61 533.844L1142.61 533.939ZM1143.74 533.082L1158.93 613.558L1166.79 612.074L1151.6 531.598L1143.74 533.082ZM1160.28 609.763C1153.31 615.656 1146.48 621.457 1137.34 625.869C1128.27 630.247 1116.75 633.332 1100.51 633.332V641.332C1117.84 641.332 1130.57 638.022 1140.82 633.073C1151 628.159 1158.55 621.702 1165.45 615.87L1160.28 609.763ZM1100.51 633.332C1083.97 633.332 1068.85 628.966 1057.97 620.458C1047.21 612.044 1040.29 599.363 1040.29 581.905H1032.29C1032.29 601.754 1040.29 616.787 1053.04 626.76C1065.68 636.638 1082.67 641.332 1100.51 641.332V633.332ZM1040.29 581.905V471.316H1032.29V581.905H1040.29ZM1040.29 471.316C1040.29 453.858 1047.21 441.177 1057.97 432.763C1068.85 424.255 1083.97 419.888 1100.51 419.888V411.888C1082.67 411.888 1065.68 416.583 1053.04 426.461C1040.29 436.434 1032.29 451.467 1032.29 471.316H1040.29ZM1100.51 419.888C1116.81 419.888 1126.99 422.597 1134.91 426.419C1143.13 430.384 1148.82 435.403 1157.15 441.051L1161.64 434.429C1154.25 429.417 1147.29 423.511 1138.39 419.214C1129.19 414.776 1117.78 411.888 1100.51 411.888V419.888ZM1155.6 436.475L1138.55 487.639L1146.14 490.169L1163.19 439.005L1155.6 436.475ZM1143.55 485.089L1138.49 483.49L1136.08 491.119L1141.14 492.718L1143.55 485.089ZM1141.28 487.26C1141.14 475.116 1139.24 461.255 1134.38 450.275C1129.5 439.275 1121.15 430.275 1107.97 430.275V438.275C1116.64 438.275 1122.81 443.932 1127.06 453.518C1131.32 463.123 1133.15 475.777 1133.28 487.35L1141.28 487.26ZM1107.97 430.275C1099.93 430.275 1092.02 432.829 1086.16 439.239C1080.34 445.607 1077.05 455.234 1077.05 468.385H1085.05C1085.05 456.486 1088.03 449.059 1092.07 444.635C1096.07 440.252 1101.62 438.275 1107.97 438.275V430.275ZM1077.05 468.385V584.836H1085.05V468.385H1077.05ZM1077.05 584.836C1077.05 597.852 1079.88 607.502 1085.51 613.921C1091.22 620.442 1099.22 622.945 1107.97 622.945V614.945C1100.73 614.945 1095.27 612.919 1091.52 608.647C1087.69 604.274 1085.05 596.869 1085.05 584.836H1077.05ZM1107.97 622.945C1114.55 622.945 1120.39 620.843 1125.33 616.662C1130.2 612.546 1134.02 606.581 1137 599.11C1142.93 584.234 1145.94 562.394 1146.61 534.033L1138.61 533.844C1137.95 561.977 1134.96 582.64 1129.57 596.144C1126.89 602.863 1123.71 607.557 1120.17 610.553C1116.7 613.484 1112.71 614.945 1107.97 614.945V622.945ZM1143.81 537.753L1148.88 536.154L1146.47 528.525L1141.41 530.124L1143.81 537.753ZM1173.63 422.817H1169.63V424.474L1170.8 425.645L1173.63 422.817ZM1173.63 417.754V413.754H1169.63V417.754H1173.63ZM1239.18 417.754H1243.18V413.754H1239.18V417.754ZM1239.18 422.817L1242.01 425.645L1243.18 424.474V422.817H1239.18ZM1227.72 513.42H1223.72V517.42H1227.72V513.42ZM1281.02 513.42V517.42H1285.02V513.42H1281.02ZM1269.56 422.817H1265.56V424.474L1266.73 425.645L1269.56 422.817ZM1269.56 417.754V413.754H1265.56V417.754H1269.56ZM1335.11 417.754H1339.11V413.754H1335.11V417.754ZM1335.11 422.817L1337.94 425.645L1339.11 424.474V422.817H1335.11ZM1335.11 630.937H1339.11V629.28L1337.94 628.108L1335.11 630.937ZM1335.11 636V640H1339.11V636H1335.11ZM1269.56 636H1265.56V640H1269.56V636ZM1269.56 630.937L1266.73 628.108L1265.56 629.28V630.937H1269.56ZM1281.02 532.073H1285.02V528.073H1281.02V532.073ZM1227.72 532.073V528.073H1223.72V532.073H1227.72ZM1239.18 630.937H1243.18V629.28L1242.01 628.108L1239.18 630.937ZM1239.18 636V640H1243.18V636H1239.18ZM1173.63 636H1169.63V640H1173.63V636ZM1173.63 630.937L1170.8 628.108L1169.63 629.28V630.937H1173.63ZM1189.08 589.1V464.654H1181.08V589.1H1189.08ZM1189.08 464.654C1189.08 441.145 1185.33 428.862 1176.45 419.988L1170.8 425.645C1177.38 432.227 1181.08 441.796 1181.08 464.654H1189.08ZM1177.63 422.817V417.754H1169.63V422.817H1177.63ZM1173.63 421.754H1239.18V413.754H1173.63V421.754ZM1235.18 417.754V422.817H1243.18V417.754H1235.18ZM1236.35 419.988C1227.48 428.862 1223.72 441.145 1223.72 464.654H1231.72C1231.72 441.796 1235.43 432.227 1242.01 425.645L1236.35 419.988ZM1223.72 464.654V513.42H1231.72V464.654H1223.72ZM1227.72 517.42H1281.02V509.42H1227.72V517.42ZM1285.02 513.42V464.654H1277.02V513.42H1285.02ZM1285.02 464.654C1285.02 441.145 1281.26 428.862 1272.39 419.988L1266.73 425.645C1273.31 432.227 1277.02 441.796 1277.02 464.654H1285.02ZM1273.56 422.817V417.754H1265.56V422.817H1273.56ZM1269.56 421.754H1335.11V413.754H1269.56V421.754ZM1331.11 417.754V422.817H1339.11V417.754H1331.11ZM1332.28 419.988C1323.41 428.862 1319.65 441.145 1319.65 464.654H1327.65C1327.65 441.796 1331.36 432.227 1337.94 425.645L1332.28 419.988ZM1319.65 464.654V589.1H1327.65V464.654H1319.65ZM1319.65 589.1C1319.65 612.609 1323.41 624.892 1332.28 633.765L1337.94 628.108C1331.36 621.526 1327.65 611.958 1327.65 589.1H1319.65ZM1331.11 630.937V636H1339.11V630.937H1331.11ZM1335.11 632H1269.56V640H1335.11V632ZM1273.56 636V630.937H1265.56V636H1273.56ZM1272.39 633.765C1281.26 624.892 1285.02 612.609 1285.02 589.1H1277.02C1277.02 611.958 1273.31 621.526 1266.73 628.108L1272.39 633.765ZM1285.02 589.1V532.073H1277.02V589.1H1285.02ZM1281.02 528.073H1227.72V536.073H1281.02V528.073ZM1223.72 532.073V589.1H1231.72V532.073H1223.72ZM1223.72 589.1C1223.72 612.609 1227.48 624.892 1236.35 633.765L1242.01 628.108C1235.43 621.526 1231.72 611.958 1231.72 589.1H1223.72ZM1235.18 630.937V636H1243.18V630.937H1235.18ZM1239.18 632H1173.63V640H1239.18V632ZM1177.63 636V630.937H1169.63V636H1177.63ZM1176.45 633.765C1185.33 624.892 1189.08 612.609 1189.08 589.1H1181.08C1181.08 611.958 1177.38 621.526 1170.8 628.108L1176.45 633.765Z" fill="#A30000"/>
<path fill-rule="evenodd" clip-rule="evenodd" d="M887.261 75.9268V49.5792C887.261 49.2242 886.945 48.9543 886.596 49.009L881.681 49.7856C881.402 49.8296 881.195 50.0722 881.195 50.3568L881.212 77.0789C881.212 78.3425 881.212 86.1454 890.56 86.4182C890.884 86.428 891.153 86.1659 891.153 85.8402V81.8517C891.153 81.5622 890.94 81.3128 890.654 81.2806C887.26 80.8884 887.26 76.628 887.26 75.9287L887.261 75.9268Z" fill="#FF002E"/>
<path d="M968.32 59.2451H963.374C963.056 59.2451 962.799 59.5035 962.799 59.8222V85.8479C962.799 86.1666 963.056 86.425 963.374 86.425H968.32C968.636 86.425 968.894 86.1666 968.894 85.8479V59.8222C968.894 59.5035 968.636 59.2451 968.32 59.2451Z" fill="#FF002E"/>
<path fill-rule="evenodd" clip-rule="evenodd" d="M963.374 55.9825H968.319C968.636 55.9825 968.893 55.7243 968.893 55.4054V49.5792C968.893 49.2252 968.578 48.9542 968.229 49.009L963.284 49.7866C963.004 49.8306 962.798 50.0721 962.798 50.3568V55.4054C962.798 55.7243 963.055 55.9825 963.373 55.9825H963.374Z" fill="#FF002E"/>
<path fill-rule="evenodd" clip-rule="evenodd" d="M954.826 75.9268V49.5792C954.826 49.2242 954.511 48.9543 954.162 49.009L949.247 49.7856C948.967 49.8296 948.761 50.0722 948.761 50.3568L948.777 77.0789C948.777 78.3425 948.777 86.1454 958.125 86.4182C958.45 86.428 958.719 86.1659 958.719 85.8402V81.8517C958.719 81.5622 958.505 81.3128 958.22 81.2806C954.825 80.8884 954.825 76.628 954.825 75.9287L954.826 75.9268Z" fill="#FF002E"/>
<path fill-rule="evenodd" clip-rule="evenodd" d="M941.961 62.9607C940.876 61.7626 939.542 60.8433 937.989 60.1919C936.438 59.5532 934.749 59.2285 932.917 59.2285C931.088 59.2285 929.396 59.5386 927.86 60.1919C926.341 60.8433 925.007 61.7616 923.889 62.9607C922.772 64.1569 921.904 65.5887 921.283 67.2671C920.661 68.9464 920.383 70.922 920.383 72.9749C920.383 75.0278 920.694 76.581 921.313 78.2769C921.934 79.9709 922.788 81.4174 923.889 82.6155C924.989 83.8116 926.308 84.73 927.844 85.399C929.38 86.067 931.752 86.4093 932.948 86.424C934.141 86.424 936.531 86.0504 938.081 85.399C939.632 84.7457 940.951 83.8116 942.054 82.6155C943.153 81.4174 944.007 79.9709 944.61 78.2769C945.216 76.581 945.511 75.0278 945.511 72.9749C945.511 70.922 945.185 68.9464 944.534 67.2671C943.912 65.5878 943.059 64.1569 941.959 62.9607H941.961ZM937.633 78.9762C936.516 80.5166 934.949 81.2942 932.949 81.2942C930.947 81.2942 929.381 80.5313 928.264 78.9762C927.147 77.4358 926.588 75.6499 926.588 72.9906C926.588 70.3606 927.132 68.1845 928.249 66.646C929.365 65.1056 930.932 64.3456 932.932 64.3456C934.933 64.3456 936.5 65.1066 937.616 66.646C938.733 68.1688 939.307 70.3606 939.307 72.9906C939.307 75.6499 938.75 77.4211 937.632 78.9762H937.633Z" fill="#FF002E"/>
<path fill-rule="evenodd" clip-rule="evenodd" d="M870.121 59.2451H865.316C860.605 59.2451 856.461 61.7372 854.041 65.5144C852.627 67.7228 851.802 70.3684 851.802 73.2145C851.802 77.605 853.763 81.5201 856.827 84.0806C857.112 84.3349 857.416 84.5676 857.734 84.7789C858.986 85.6093 860.472 86.0963 862.07 86.0963C862.19 86.0963 862.31 86.0934 862.429 86.0875C862.464 86.0856 862.498 86.0826 862.533 86.0807C862.618 86.0758 862.703 86.0699 862.788 86.0611C862.821 86.0582 862.854 86.0533 862.887 86.0494C862.976 86.0396 863.065 86.0288 863.153 86.0161C863.174 86.0132 863.194 86.0093 863.215 86.0064C866.418 85.5105 869.211 82.992 870.121 79.8633V85.5193C870.121 85.8381 870.378 86.0963 870.696 86.0963H875.607C875.924 86.0963 876.181 85.8381 876.181 85.5193V59.8222C876.181 59.5033 875.924 59.2451 875.607 59.2451H870.121ZM870.121 79.4828C868.932 80.4765 867.396 80.8501 865.753 80.9616C865.738 80.9626 865.721 80.9645 865.705 80.9655C865.596 80.9724 865.487 80.9753 865.378 80.9753C861.264 80.9753 857.866 77.4651 857.866 73.2126C857.866 72.2101 858.057 71.2555 858.394 70.3782C859.487 67.5301 862.171 65.5134 865.316 65.5134H870.121V79.4828Z" fill="#FF002E"/>
<path fill-rule="evenodd" clip-rule="evenodd" d="M990.86 59.2451H986.055C981.345 59.2451 977.2 61.7372 974.78 65.5144C973.366 67.7228 972.541 70.3684 972.541 73.2145C972.541 77.605 974.502 81.5201 977.566 84.0806C977.852 84.3349 978.155 84.5676 978.473 84.7789C979.726 85.6093 981.211 86.0963 982.81 86.0963C982.929 86.0963 983.049 86.0934 983.168 86.0875C983.203 86.0856 983.237 86.0826 983.272 86.0807C983.357 86.0758 983.443 86.0699 983.527 86.0611C983.56 86.0582 983.594 86.0533 983.627 86.0494C983.715 86.0396 983.804 86.0288 983.893 86.0161C983.913 86.0132 983.934 86.0093 983.954 86.0064C987.158 85.5105 989.95 82.992 990.86 79.8633V85.5193C990.86 85.8381 991.117 86.0963 991.435 86.0963H996.346C996.664 86.0963 996.921 85.8381 996.921 85.5193V59.8222C996.921 59.5033 996.664 59.2451 996.346 59.2451H990.86ZM990.86 79.4828C989.672 80.4765 988.136 80.8501 986.492 80.9616C986.477 80.9626 986.46 80.9645 986.445 80.9655C986.336 80.9724 986.226 80.9753 986.117 80.9753C982.003 80.9753 978.605 77.4651 978.605 73.2126C978.605 72.2101 978.796 71.2555 979.133 70.3782C980.226 67.5301 982.91 65.5134 986.055 65.5134H990.86V79.4828Z" fill="#FF002E"/>
<path fill-rule="evenodd" clip-rule="evenodd" d="M910.996 59.2451H906.191C901.48 59.2451 897.336 61.7372 894.916 65.5144C893.768 67.3081 893.007 69.3913 892.762 71.636C892.706 72.1543 892.677 72.6805 892.677 73.2145C892.677 73.7485 892.707 74.305 892.767 74.8371C893.184 78.5625 895.021 81.8409 897.702 84.0816C897.987 84.3359 898.291 84.5686 898.609 84.7799C899.861 85.6102 901.347 86.0973 902.945 86.0973C904.698 86.0973 906.316 85.5173 907.636 84.5354C909.223 83.4028 910.449 81.744 910.995 79.8652V84.7809H910.984V85.8645C910.984 88.0006 910.428 89.6075 909.295 90.6922C908.164 91.7758 906.272 92.3186 903.621 92.3186C902.538 92.3186 900.817 92.2609 899.082 92.0829C898.806 92.0546 898.55 92.2296 898.471 92.4957L897.227 96.712C897.127 97.0504 897.35 97.3986 897.697 97.4485C899.793 97.7497 901.839 97.9062 903.02 97.9062C907.784 97.9062 911.315 96.8548 913.627 94.7559C915.719 92.8576 916.856 89.9743 917.055 86.0983V59.8241C917.055 59.5053 916.798 59.2471 916.481 59.2471H910.995L910.996 59.2451ZM910.996 65.5144C910.996 65.5144 911.059 79.1219 910.996 79.5356C909.819 80.4912 908.355 80.8648 906.76 80.9733C906.744 80.9743 906.728 80.9763 906.712 80.9773C906.603 80.9841 906.494 80.987 906.385 80.987C906.256 80.987 906.128 80.9841 906.001 80.9773C902.065 80.7709 898.742 77.3331 898.742 73.2135C898.742 72.211 898.933 71.2565 899.27 70.3792C900.363 67.5311 903.047 65.5144 906.192 65.5144H910.997H910.996Z" fill="#FF002E"/>
<path d="M807.334 49.002C794.036 49.002 783.194 59.7683 783.003 73.0765C782.808 86.5921 793.729 97.7917 807.191 97.8699C811.349 97.8944 815.353 96.8733 818.909 94.9329C819.256 94.7441 819.309 94.2649 819.014 94.0027L816.737 91.9762C816.274 91.5645 815.616 91.4481 815.046 91.6906C812.564 92.7508 809.867 93.2927 807.087 93.2584C796.209 93.1245 787.42 84.0365 787.593 73.1147C787.765 62.3307 796.555 53.6115 807.334 53.6115H827.078V88.8475L815.876 78.8538C815.514 78.5301 814.958 78.5937 814.666 78.9819C812.868 81.3723 809.939 82.8589 806.686 82.6339C802.173 82.321 798.516 78.6729 798.178 74.1436C797.774 68.7408 802.038 64.2145 807.334 64.2145C812.125 64.2145 816.07 67.9163 816.482 72.6207C816.519 73.0393 816.707 73.4296 817.019 73.7083L819.937 76.305C820.268 76.5994 820.793 76.4195 820.875 75.9823C821.085 74.8526 821.159 73.676 821.076 72.4691C820.607 65.5896 815.057 60.0548 808.202 59.6313C800.344 59.1452 793.774 65.3177 793.565 73.055C793.362 80.5957 799.515 87.0958 807.026 87.2621C810.161 87.3315 813.068 86.3417 815.416 84.6262L830.052 97.6538C830.68 98.2122 831.67 97.7653 831.67 96.9232V49.9272C831.67 49.4147 831.257 49 830.747 49H807.334V49.002Z" fill="#FF002E"/>
<rect x="51" y="67" width="706" height="12" stroke="#A30000" stroke-width="4"/>
<rect x="1022" y="67" width="707" height="12" stroke="#A30000" stroke-width="4"/>
<rect x="434" y="683" width="909" height="12" stroke="#A30000" stroke-width="4"/>
<rect x="51" y="416" width="378" height="12" stroke="#A30000" stroke-width="4"/>
<rect x="1356" y="416" width="373" height="12" stroke="#A30000" stroke-width="4"/>
</g>
<defs>
<filter id="filter0_dd_625_306" x="0" y="0" width="1780" height="746" filterUnits="userSpaceOnUse" color-interpolation-filters="sRGB">
<feFlood flood-opacity="0" result="BackgroundImageFix"/>
<feColorMatrix in="SourceAlpha" type="matrix" values="0 0 0 0 0 0 0 0 0 0 0 0 0 0 0 0 0 0 127 0" result="hardAlpha"/>
<feOffset/>
<feGaussianBlur stdDeviation="24.5"/>
<feComposite in2="hardAlpha" operator="out"/>
<feColorMatrix type="matrix" values="0 0 0 0 1 0 0 0 0 0 0 0 0 0 0.180392 0 0 0 1 0"/>
<feBlend mode="normal" in2="BackgroundImageFix" result="effect1_dropShadow_625_306"/>
<feColorMatrix in="SourceAlpha" type="matrix" values="0 0 0 0 0 0 0 0 0 0 0 0 0 0 0 0 0 0 127 0" result="hardAlpha"/>
<feOffset/>
<feGaussianBlur stdDeviation="4"/>
<feComposite in2="hardAlpha" operator="out"/>
<feColorMatrix type="matrix" values="0 0 0 0 1 0 0 0 0 0 0 0 0 0 0.180392 0 0 0 1 0"/>
<feBlend mode="normal" in2="effect1_dropShadow_625_306" result="effect2_dropShadow_625_306"/>
<feBlend mode="normal" in="SourceGraphic" in2="effect2_dropShadow_625_306" result="shape"/>
</filter>
</defs>
</svg>
